<mxfile host="app.diagrams.net" modified="2023-05-08T08:43:10.026Z" agent="Mozilla/5.0 (Windows NT 10.0; Win64; x64) AppleWebKit/537.36 (KHTML, like Gecko) Chrome/112.0.0.0 Safari/537.36 Edg/112.0.1722.68" etag="uHwB9n1TQcR9OLxxd16p" version="21.2.9" type="github">
  <diagram name="第 1 页" id="oyyRL3EKb9Zoqq3U5nI3">
    <mxGraphModel dx="1560" dy="837" grid="0" gridSize="10" guides="1" tooltips="1" connect="1" arrows="1" fold="1" page="1" pageScale="1" pageWidth="2336" pageHeight="1654" math="0" shadow="0">
      <root>
        <mxCell id="0" />
        <mxCell id="1" parent="0" />
        <mxCell id="uut4hfN15O6eYL7KADeR-7" value="ML-100k" style="text;html=1;strokeColor=none;fillColor=none;align=center;verticalAlign=middle;whiteSpace=wrap;rounded=0;" parent="1" vertex="1">
          <mxGeometry x="144" y="289" width="60" height="30" as="geometry" />
        </mxCell>
        <mxCell id="uut4hfN15O6eYL7KADeR-8" value="ML-100k" style="text;html=1;strokeColor=none;fillColor=none;align=center;verticalAlign=middle;whiteSpace=wrap;rounded=0;" parent="1" vertex="1">
          <mxGeometry x="439" y="289" width="60" height="30" as="geometry" />
        </mxCell>
        <mxCell id="uut4hfN15O6eYL7KADeR-9" value="ML-100k" style="text;html=1;strokeColor=none;fillColor=none;align=center;verticalAlign=middle;whiteSpace=wrap;rounded=0;" parent="1" vertex="1">
          <mxGeometry x="732" y="289" width="60" height="30" as="geometry" />
        </mxCell>
        <mxCell id="uut4hfN15O6eYL7KADeR-10" value="ML-100k" style="text;html=1;strokeColor=none;fillColor=none;align=center;verticalAlign=middle;whiteSpace=wrap;rounded=0;" parent="1" vertex="1">
          <mxGeometry x="1024" y="289" width="60" height="30" as="geometry" />
        </mxCell>
        <mxCell id="uut4hfN15O6eYL7KADeR-11" value="Music" style="text;html=1;strokeColor=none;fillColor=none;align=center;verticalAlign=middle;whiteSpace=wrap;rounded=0;" parent="1" vertex="1">
          <mxGeometry x="274" y="289" width="60" height="30" as="geometry" />
        </mxCell>
        <mxCell id="uut4hfN15O6eYL7KADeR-12" value="Music" style="text;html=1;strokeColor=none;fillColor=none;align=center;verticalAlign=middle;whiteSpace=wrap;rounded=0;" parent="1" vertex="1">
          <mxGeometry x="562" y="289" width="60" height="30" as="geometry" />
        </mxCell>
        <mxCell id="uut4hfN15O6eYL7KADeR-13" value="Music" style="text;html=1;strokeColor=none;fillColor=none;align=center;verticalAlign=middle;whiteSpace=wrap;rounded=0;" parent="1" vertex="1">
          <mxGeometry x="855" y="289" width="60" height="30" as="geometry" />
        </mxCell>
        <mxCell id="uut4hfN15O6eYL7KADeR-14" value="Music" style="text;html=1;strokeColor=none;fillColor=none;align=center;verticalAlign=middle;whiteSpace=wrap;rounded=0;" parent="1" vertex="1">
          <mxGeometry x="1154" y="289" width="60" height="30" as="geometry" />
        </mxCell>
        <mxCell id="uut4hfN15O6eYL7KADeR-15" value="&lt;font style=&quot;font-size: 18px;&quot;&gt;(a) Recall@10&lt;/font&gt;" style="text;html=1;strokeColor=none;fillColor=none;align=center;verticalAlign=middle;whiteSpace=wrap;rounded=0;" parent="1" vertex="1">
          <mxGeometry x="146" y="322" width="188" height="30" as="geometry" />
        </mxCell>
        <mxCell id="uut4hfN15O6eYL7KADeR-16" value="&lt;font style=&quot;font-size: 18px;&quot;&gt;(b) Recall@20&lt;/font&gt;" style="text;html=1;strokeColor=none;fillColor=none;align=center;verticalAlign=middle;whiteSpace=wrap;rounded=0;" parent="1" vertex="1">
          <mxGeometry x="439" y="322" width="188" height="30" as="geometry" />
        </mxCell>
        <mxCell id="uut4hfN15O6eYL7KADeR-17" value="&lt;font style=&quot;font-size: 18px;&quot;&gt;(c) MRR&lt;/font&gt;" style="text;html=1;strokeColor=none;fillColor=none;align=center;verticalAlign=middle;whiteSpace=wrap;rounded=0;" parent="1" vertex="1">
          <mxGeometry x="720" y="322" width="188" height="30" as="geometry" />
        </mxCell>
        <mxCell id="uut4hfN15O6eYL7KADeR-18" value="&lt;font style=&quot;font-size: 18px;&quot;&gt;(d) NDCG@10&lt;/font&gt;" style="text;html=1;strokeColor=none;fillColor=none;align=center;verticalAlign=middle;whiteSpace=wrap;rounded=0;" parent="1" vertex="1">
          <mxGeometry x="1010" y="319" width="188" height="30" as="geometry" />
        </mxCell>
        <mxCell id="5QQWbqI1W0IgyorXffG8-1" value="" style="shape=image;verticalLabelPosition=bottom;labelBackgroundColor=default;verticalAlign=top;aspect=fixed;imageAspect=0;image=data:image/png,iVBORw0KGgoAAAANSUhEUgAAAFIAAACWCAYAAABNVd85AAAES0lEQVR4nO3cv0sjaxjF8ZPLFqNdEJGxDWkMFvZKGomVXC5YmEZSWQgiiwiKCP4Fro2NpREiFrlYpEmqxVgZSJOpwpSSYtCxMUyXLRaz0f3lzZ53cn053ypiwjN8GMdJMu8ker1eD+qP+2vUG2BLgiQlSFKCJCVIUoIkJUhSgiQlSFKCJCVIUoIkJUhSgiQlSFKCJCVIUoIkJUhSgiQlSFIfRr0BJmq32zg7O4Pv+8jlcigUCsZnxg75OZEY6nXZN35rXCqVUKvVEEXRUHOGzZo9MggCnJ6ewvM8OI4D13XR6XRim2/NMbJSqcDzPGQyGezt7WF2djbW+dbskdPT0ygUCsjlcgCAm5ubWOdbA/kMOKqs+dMedYIkJUhSgiQlSFKCJCVIUoIkZc0JebVaxfX1df/nh4cHAMDt7S183wcAOI6D/f19I/Njh3zrpzj/tfv7+z7YYGEYIgxDAF8hTZXQqgZOOkaSEiQpQZISJClBkhIkKUGSEiQpQZISJClBkhIkKUGSEiQpQZISJClBkhIkKUGSEiQpQZISJClBkhIkKUGSEiQpQZISJClBkhIkKUGSEiQpay59BoCrqyu0Wi34vo8oiuA4DlKpFLLZLObn543Ojh0ycfXPUK/r/f3vL3+/vb3dX5+dSqUAAL7vw/M8eJ6HbrdrdOGnNXtkFEVYXl7G4uIiJicnAXy9JcPx8THCMMTFxYVRSGuOkScnJ8jn831EAEin0328KIpQr9eNzbcG8mdNTEzEMsd6yG632388NTVlbI71kK1WCwDgui7S6bSxOVZDNptNNBoNAMDS0pLRWdZCBkGA8/NzAEAmkzF+zwtrIYvFIjqdDlzXxfr6uvF5VkIeHR2h0WjAcRzs7u6+OCUylXWQg4ibm5uxIAKWQb5GnJubi222NZCjRAQsea89eJozNjaGcrmMcrn83fOsWvj+u09x/rTBhe6v08L3d5A1x8hRJ0hSgiQlSFKCJCVIUoIkJUhSgiQlSFKCJCVIUoIkJUhSgiQlSFKCJCVIUoIkJUhSgiQlSFKCJCVIUoIkJUhSgiQlSFKCJCVIUoIkZcUVuz8qCAIcHh72Lzrd2dkxejm0tXtksVh8ceXu09OT0XnxL3z/+Hmo1/U+Zd/83Hq9jkaj8WIBvOms2yODIECpVAIArK2txTbXOshKpYIwDJHL5Yyuhn2dVZDNZhPVahXJZBKFQiHW2VZBPq+tyefzsc+2BrJUKsH3fSwsLBi/Nc2PsgKy3W6jVqvBcRysrKyMZBusgLy8vEQURVhdXY1tNezrYl/5xT6PDIIAW1tbAL7dOGmwu7s7RFEE13UxPj6OmZkZI8fQd/8W8fHxsf/4Vyfez3epSiaTRrbj3e+Rv+vg4AC+72NjY8PoPyErjpH/hwRJynpIk2u0B9N6bVLW75FxJUhSgiQlSFKCJCVIUoIkJUhSgiQlSFKCJCVIUoIkJUhSXwDMEDmPthKXngAAAABJRU5ErkJggg==;" parent="1" vertex="1">
          <mxGeometry x="1259" y="147.75" width="45.12" height="82.54" as="geometry" />
        </mxCell>
        <mxCell id="kc352DVUYK6wXFfk50S--2" value="" style="shape=image;verticalLabelPosition=bottom;labelBackgroundColor=default;verticalAlign=top;aspect=fixed;imageAspect=0;image=data:image/png,iVBORw0KGgoAAAANSUhEUgAAAEAAAACgCAYAAAC8LWpcAAADyklEQVR4nO2dsW7TUBhGvyBewO0jRFm6IaUTkZjwGjFZ9ULmeKLMUZUHwEzpbJZWnpDXMiGZpa3EA7h+hNaPEAbkEJO0EHGd7w/5zuhY3JOjuI7wr5vOfD6fY495xhZgowBsATYKwBZgowBsATYKwBZgowBsATYKwBZgs/cBnrMF1pHnOc7PzxvHgiDAcDh0vpazAF87nY3Of/XIf0NkWYY0TeH7PkajEQAgSRKkaQoAziOYuwTSNEW32128eQAYjUbwPG8RwSWmAuR5DgDo9/srrx0fHzfOcYWpAHd3dwCAw8PDldc8zwMA3N/fO13TVICHh4c/nlNVldM1TQVgoABsgWUODg7+eE79t8AVpgI89YeuvvaPjo6crmkqQP3mbm9vV167ubmB53no9XpO1zQVoNfrwfd9lGWJLMsWx+M4RlVVODk5cb5mx+KjsSRJcHV11Th2cXHRylomA2wTU5cAAwVgC7BRALYAGwVgC7BRALYAGwVgC7BRALYAGwVgC7BRALYAGwVgC7BRALYAGwVgC7BRALYAG9MB4jhGGIaN54SucTYm18nebHT+fPj5ydfDMPwXnb/G3Ccgy7LFmw+CoPX1zAWoqgrdbre1p8G/Y25UdnlAchuY+wRsGwVgC7BRALYAGwVgC7AxNyW2bkRumel06nRY0lyAbbP3l4ACsAXYKABbgI0CsAXYKABbgI0CsAXYKABbgI0CsAXYKABbgI0CsAXYKABbgI0CsAXYKABbgI25ERlgdULM8zzMZrNW1nL2aOz1+28bnf/lw8u1x6Mogu/7i13jiqLA2dkZgHa20TB3Ccxms8aWefXGKgBaGZg0F2Ad9f5CrvcRA3YkQI3rXaSAHQlQb6zkehcpYAcCZFmGsizR7/ed7yIFGA9QFMViG83T09NW1jAdoL79TafT1tYwGyCKIgDAeDxu5aNfYzLAZDJBVVUIggCDwaDVtcwFiOMYZVk2vg22iakpseWvvY+hMTnHmLsEto0CsAXYKABbgI0CsAXYKABbgI0CsAXYKABbgI0CsAXYKABbgI0CsAXYKABbgI0CsAXY7H0ATYm5ejL07sWnjc7/+P3t2uOaEtOU2HbZiQBlWQLY0yGpJEkW8wJtTIqYvAtEUdQYilz+EWbXmLsLrKO+LY7HY+cjM+YvAeDX7e/y8tL5v70TAYCfX4b2ela4qqr/f1Y4z3OEYYiiKBrHJ5MJALTym6Om7gKDwQDX19drJ8X0m6MtYeoSYKAAbAE2CsAWYKMAbAE2CsAWYKMAbAE2CsAWYKMAbAE2PwB+nBF0H2XoIgAAAABJRU5ErkJggg==;" vertex="1" parent="1">
          <mxGeometry x="1260.09" y="133.97" width="44.03" height="110.09" as="geometry" />
        </mxCell>
        <mxCell id="kc352DVUYK6wXFfk50S--3" value="" style="shape=image;verticalLabelPosition=bottom;labelBackgroundColor=default;verticalAlign=top;aspect=fixed;imageAspect=0;image=data:image/png,iVBORw0KGgoAAAANSUhEUgAAAk0AAAGcCAMAAAGEqVTrAAAAAXNSR0IArs4c6QAAAARnQU1BAACxjwv8YQUAAABpUExURf////n5+WxsbFlZWcXFxY2Njenp6WRkZKurq7+/v6Ojo3l5efj4+Pz8/IuLi2BgYPHx8VxcXNvb29fX13h4eAAAAACwUIqKitnZ2Xp6esLCwvX19WhoaERyxHAwoMAAADg4OCAgIAAAADMxVH0AAAAjdFJOU/////////////////////////////////////////////8AZimDlgAAAAlwSFlzAAAXEQAAFxEByibzPwAAFghJREFUeF7t3dFy4roShWGqoIpkrlJkZ7jae3Le/yWPJf1YNqhFQ6xYnqzvYpI4C6NueiDEMez6tefjl70stytZxQsfF3B6dBh+D/j0q7QrP3tXBz66fcuqHvaDd/Wy+4fPnOxdnfjoZu/qYSvu6t8Bn17reFfF78f/zqdrIcqn18Ku4vffs7gnQ4jy6TV7VWVL7+q/AV9PbG1X5f/MT+2q/Nj81K5u5Kh2dc/zuzqEu2T+p0Yhmv47h12xcWL8Pv+VA/Z1LUR9qyp/f2KZXf0ZaFe+Xcm32e/OfCaynEd/jRLvGJahXflVd/XYPcN3reox2pVfZVc/879z/EGlrONdWd8f/jvzc/QoRPn0WtjV9c/atd+ghCifXquuqmDpXd37UdSng1298XHiuV298nHmuV1dy1Ht6p6v7or/qkGIPvrU2fjvHKK+VZW/P7HMrvp8kvr1XY2/DPv6rh7+3bb8rR4+5iUif7N4l9DyD1vCY1PAl31gTVrUXaxJi7qLNT20qAX/IqmMNT20qNNwd9DyHkEz5caatKi7WNP2F5V/Rufp+dJY02+e6Zu+9Xkja9JM3cWaWi0q/BYh4Esn1rT9RcUHZN/ks6anF8XFHZd/4AGZfX7Doh7APntdVPidWcA3qliTFnUXa9r+oh54QGaf/57ib9oDvlHFmn7ny/MIfOWhB2T2OauUNa1387FPLeou9qlFhQMh1cFnn9+6qP1rh4u6i30uuigu7rr8RDiqFWhR97AmLWqG0+8+pljTn48P9vn744N9/vvxwT7/I1zAxR+5fFyLiKwnPDlu+uvqx73FRfFFJ+KaorXvtkrXrzXd0pp8tCYfrclHa/LpfU17HvH6WVN4DE5nzjRaE09cwvOpusn1D216i43qaE0jremW1pTwtUlrSvjapDUlfG3SmhK+Nk2vv/FjMCt6ZE3Nnwezoof6NLRpfwyfdLSmkdZ0S2tK+NqkNSV8bdKaEr42aU0JX5um1z883sUnnf2sKTwGv6Q1HfgjmGWxovt/5DrpyX537K1PmdZ0S2tK+Nr016yJg/HhbwQewIq0pjtYkdZ0Bysa1sSlrctPr394DI4vrNHPmibPg3nQNLFH8/VgylgRry0R8aB7ZdKT8Dw4vvRBT7fdhdZ06y9cE3/o5fr7NVakNd3BirSmO1iR1nQHK3psTcMDSzy9q581xT9jjQ/Dd58Hs0dexCniOzWs6KHH4N3pM/1k0NNtd2GsiT3O9smKtKYJ9qg1XWhNt7SmRGuq4tKPremf3bH2PJg9fuea4mNwWhMPmlfY4/Qx9Dseg6u/L2CP33vbXXzjmrj0/PJaU/LlNXHCEy8wGWlNidaUkIm0pmT7a0qvLtvXmtLLLHBiZcKK/vwZz8j8PZ6R+e94RqZ9SieXfujycRUXn/ExWERERL7d8MNK+nnlV/xXyk7DD1Dx9/an/EPLP/xQ81Ol4xhX9rvX+DufdCJeNP+p7+fx1q8++ahPPuqTj/rkoz75qE8+6pOP+uSjPvmoTwXD85bwzC7+A/XpVnj6G573nff78T0x7/6Fe1c4VJGx/XnFOeH3KkOvxqfJ25onupOx/Xne+tUnH/XJR33yUZ981Ccf9clHffJRn3zUJx/1qeCYngJPj+2pT7cux4P3kxdHD8+D44lmW/jnne5k77PvP/FPcU7Gvy/IR4Q1Tz7qk4/65KM++ahPPuqTj/rkoz75qE8+6pOP+lTA8+Dda/5DVvXp1uV58HnyB7/qU8H4PFh9uvDWrz75qE8+6pOP+uSjPvl8vU+cXJ6xvQW6k7H9eeqTj/rkoz75qE8+xfp5HvyyO+a/9+Xj8+hOxvYW6E42bONasxR1KtU/Pg/exxdBjdSngibHg1ldxvYW6E42bONasxR18tavPvmoTz7qk0+bPvHyWFmKfhndyYZtXGuWok7qk4/65KM++ahPPuqTj/rkU65//xn+PX/y7GWgPt16u7xO1u6l8e8L6E6Wol9Gd7JhG9eapahTsU8v9Cn/+bj6xMd7HusTq8uGbawuG7bRnSxe+uu41mzYxrVmKeqkPvmoTz7qk4/65KM++ahPPuqTj/rkoz75lOtPz4N35/xCWerTrfF58OT1otWnW+Pz4IP6dOGt/+/sE9eaxUuXqE8z8dIl6tNMvHSJ+jQTL13y9T7xxlHZsI3VZcM2VpcN21hdFna4AK41G7ZxrdmwjWvN4qVL1KeZeOkS9WkmXrpEfZqJly5Rn2bipUvUp5l46ZJqn3g6HKhPpnxYeNBvn7jWbNjGtWbDNq41G7ZxrVnYYVGtT5enwyIiIiIiIiLygx33h/jv5HXH5cbLeHq52lQxNCe8cMEuvGe3mIY2HWKbJsPEe6D/WLRh6sgchV9iXlR+1/kTlMo/vAxz9Poa2jVSm1zUJhe1yUVtclGbXNQmF7XJRW1yUZtc1CYXtclFbXJRm1zUJhe1yUVtclGbXNQmF7XJRW1yUZtc1KYbb+HIymB6zFdtuhGO0x12u8P4An0DtekGB8fP5/3kJR/D+5xvBiesjNj8PGOawmtcnKd/RLCtaaI7IzY/r1T+0J/wFymvb7tfC74w5neiOyM2P69Y/n5/igfH4585JWqTi9rkoja5qE0uapOL2uSiNrmoTS5qk4va5KI2uahNLmqTi9rkoja5qE0uapOL2uSiNrmoTS5q0w2O+p6mp7CqTTc46qs2ZaXyOep7CsehLtJR38NG/qE7o+vvP/yPMU28s0E+jVXTdIOjvgO1CcXyw/+2w2H4T8fXA7XJRW1yUZtc1CYXtclFbXJRm1zUJhe1yUVtclGbXNQmF7XJRW1yUZtc1CYXtclFbXJRm1zUJhe16cblXN/dngMsA7XpRjjqGw5k/rochxqoTTeGUYpvQH5Wmy6MaQpHfYcPkzadTqf3zaA7o3CE+0tKbRqaQ380TSiWH8/1Def5qk3wlq82uahNLmqTi9rkoja5qE0uapOL2uSiNrmoTS5fbxNvH5+xvQW6M2Lz89QmF7XJRW1yUZtc1CYXtclFbXJRm1x+Tpu41lEMepXK56jvr3jEDmrTjctRX7VpVCr/ctR3/5m+DtSmGxz1TZ/hI5wczDHV57C6jO0t0J1R2Ma1jjie61NqUz7qO2kTH5/H6jK2t0B3RmEb1zqKQa9i+U3O9WV1GdtboDujsI1rHcWgl7d8tclFbXJRm1zUJhe1yUVtcmnTpv+upeiX0Z1R2Ma1jmLQS21yUZtc1CYXtclFbXJRm1zUJhe1yUVtclGbXNQmF7XJRW1yKZa/38fjT+0PGdCcLEW/jO6MwjaudRSDXqXyX3a7c3pv0dZHfWlOlqJfRndGYRvXOopBr1L5+XCm2oRS+UNzUpuYqeDr5/qyumzYRnOyFP0yujMK27jWUTqc62RMU/xTi3geKzRNN07hD3cOr4fhPmqkNrk81iZWNwrbWF02bKM5WQgugKsdhW1c6ygGvdQmF7XJRW1yUZtc1CYXtclFbXJRm1zUJhe1yUVtclGbXNQmF7XJRW1yUZtc1CYXtclFbXIpls9R393TZ2eyulHYxuqyYRvNyUJwAVztKGzjWkcx6FUqn6O+by9PHxxndaOwjdVlwzaak4XgArjaUdjGtY5i0KtU/njUV226KJU/HvWdtumhc31Z3ShsY3XZsI3mZCG4AK52FLZxrSOO5/oY05ROsNc0XZTK56iv2pR5y/8728S1ZmFjido0EzaWqE0zYWOJ2jQTNpaoTTNhY4naNBM2lqhNM2FjyZfb9Oda2MjqRmEbq8uGbSwuC8EFcLWjsI1rHYVtXGsWNpaoTTNhY4naNBM2lqhNM2Fjido0EzaWqE0zYWOJ2jQTNpaoTTNhY4naNBM2lqhNM2Fjido0EzaWqE0zYWOJ2jQTNpbU2nQ5+BuoTZZ8yu9AbbLkU34H3baJa83CRq52FLZxraOwjWvNwsaSSpvGg7/Bh4XFZWEjqxuFbawuG7axuCwEH8O1ZmEjVzsK27jWUdjGtWZhYxFtKBgP/krN6fIO7SIiIiIiIiIiIiIiIiIiskVv+5fd7nU/eTns3dtx+rLPIm5pcl73k7+3OPIu2yKPOaR7pdPkTwvP//CJyGPeLtM0PtSd9/mtMjL+nkx+KubgjnRPlO+Pfk0f8zLv7uSv5L75T/tBfGOa8Gg3/3k80zT9aAvf/JqmH03TJMvRNMlyNE2yHE2TLEfTJMvRNMlyNE2yHE2TLEfTJMvRNMlyNE2yHE2TLEfTJMvRNMlyNE2yHE2TLEfTJMvRNMlyNE2yHP/Nf9xPX6j/LZx0cHuur6bpR/Pe/L9mZ0CdCoMUaZp+NOfNfzrGu6XL2Znmeb6apnZ4LwYbuRU5b37OHOfD2zGeWXe8namPj5M0wszYyK3IOU3xJVLyq1qk+6bZa1wkum9qh5mxkVuR9+Y/pFfcGcYnnOv7tj+z6YqmqR1mxkZuRQvf/JqmdpgZG7kVaZo2g5mxkVuRpmkzmBkbuRVpmjaDmbGRW5GmaTOYGRu5FWmaNoOZsZFbkaZpM5gZG7kVaZo2g5mxkVuRpmkzmBkbuRVpmjaDmbGRW5GmaTOYGRu5FWmaNoOZsZFbkaZpM5gZG7kVaZo2g5mxkVuRpmkzmBkbuRVpmjaDmbGRW5GmaTOYGRu5FWmaNoOZsZFbkaZpM5gZG7kVaZo2g5mxkVuR++Z/O+4/x3N9D/vhi33h/Q41Te0wMzZyK/Le/L+O4d98ru/NuU+JpqkdZsZGbkXOm/90jKdlXs71PWiavh8zYyO3IufNPz/XN/k1eZGLi3Cu7yGd98mHgT5b4LP3++f6vp/e3/MFou/97MlzfZPCqxHovqkdZsZGbkXem39yru/nYXcO90qldx3XNLXDzNjIrWjhm1/T1A4zYyO3Ik3TZjAzNnIr0jRtBjNjI7ciTdNmMDM2civSNG0GM2MjtyJN02YwMzZyK9I0bQYzYyO3Ik3TZjAzNnIr0jRtBjNjI7ciTdNmMDM2civSNG0GM2MjtyJN02YwMzZyK9I0bQYzYyO3Ik3TZjAzNnIr0jRtBjNjI7ciTdNmMDM2civSNG0GM2MjtyJN02YwMzZyK9I0bQYzYyO3Ik3TZjAzNnIrct/8b8fP6fv67t7On2c+ndA0tcPM2MityHvzX871vZym8nY8nDVN34qZsZFbkfPmH8/15d7pdDztNE3fi5mxkVuR8+bnJN/xzPHjcB9VnqZ4zufhdHqXhTEzNnIrOb0/ea7vYY+bU8d139QOM2MjtyLvzT8/1zfSI933YmZs5Fa08M2vaWqHmbGRW5GmaTOYGRu5FWmaNoOZsZFbkaZpM5gZG7kVaZo2g5mxkVuRpmkzmBkbuRVpmjaDmbGRW5GmaTOYGRu5FWmaNoOZsZFbkaZpM5gZG7kV/YXT9O9dBDeGmbGRW5GmaTOYGRu5FWmaNoOZsZFbkaZpM5gZG7kVaZo2g5mxkVuRpmkzmBkbuRVpmjaDmbGRW5GmaTOYGRu5FWmaNoOZsZFbkaZpM5gZG7kVuW/+2bm+b+fy2/pqmhpiZmzkKNJGrgHvzX99ru9g/taHiaapHWbGRo4ibeQacN781+f6Dk7pFLs5TVM7zIyNHEXayDXgvPmvzvWNjsX7pniu76on+9KzCoIbw8zYyFGkjdzi/sr39aVnFQQ3hpmxkaNIG7kGvDf//FzfY3jAO+vnpm/FzNjIUaSNXAML3/yapnaYGRs5irSRa0DTtBnMjI0cRdrINaBp2gxmxkaOIm3kGtA0bQYzYyNHkTZyDWiaNoOZsZGjSBu5BjRNm8HM2MhRpI1cAz94mv67K+V6wczYyFGkjVwDmqaKlOsFM2MjR5E2cg1omipSrhfMjI0cRdrINaBpqki5XjAzNnIUaSPXgKapIuV6wczYyFGkjVwDmqaKlOsFM2MjR5E2cg1omipSrhfMjI0cRdrINaBpqki5XjAzNnIUaSPXgKapIuV6wczYyFGkjVwDmqaKlOsFM2MjR5E2cg1omipSrhfMjI0cRdrINaBpqki5XjAzNnIUaSPXgKapIuV6wczYyFGkjVwDmqaKlOsFM2MjR5E2cg1omipSrhfMjI0cRdrINeC9+eO5mIfLyZm/zmFLp+9PR88qUo6RqUi5XjAzNnIUaSPXgPPmfzvenk/3WnghAk1TO8yMjRxF2sg14Lz5OdeXD9EpDdhcD+/rS88qUo6RqUi5XjAzNnIUaSO3uAfO9b0+c/xX4dxM3Te1xMzYyFGkjVwD3mlKZ4mP54q/ft68QXSkaWqHmbGRo0gbuQbcN398n/Fwd/Q63D+dwxefhR/DNU3tMDM2chRpI9fAwjd/y2miZzZy9Kwi5RiZipTrBVXayFGkjVwDmqaKlOsFVdrIUaSNXAOapoqU6wVV2shRpI1cA5qmipTrBVXayFGkjVwDmqaKlOsFVdrIUaSNXAOapoqU6wVV2shRpI1cA5qmipTrBVXayFGkjVwDmqaKlOsFVdrIUaSNXAOapoqU6wVV2shRpI1cA5qmipTrBVXayFGkjVwDmqaKlOsFVdrIUaSNXAOapoqU6wVV2shRpI1cA5qmipTrBVXayFGkjVwDmqaKlOsFVdrIUaSNXAOapoqU6wVV2shRpI1cA5qmipTrBVXayFGkjVwDmqaKlOsFVdrIUaSNXAOapoqU6wVV2shRpI1cA5qmipTrBVXayFGkjVwDmqaKlOsFVdrIUaSNXAPem39+rm8852DyNpojTVM7VGkjR5E2cg04b/7bc31nb8o60jS1Q5U2chRpI9eA8+a/Pdd3etpv1vJ9femZjRw9q0g5RqYi5XpBlTZyFGkjt7gvnOur+6bvRpU2chRpI9eAd5quzvXVNH0/qrSRo0gbuQbcN//sXN9T+GK/P6ZvTWia2qFKGzmKtJGjyAqCfgvf/JqmdqjSRo4ibeQosoKgn6apIuV6QZU2chRpI0eRFQT9NE0VKdcLqrSRo0gbOYqsIOinaapIuV5QpY0cRdrIUWQFQT9NU0XK9YIqbeQo0kaOIisI+mmaKlKuF1RpI0eRNnIUWUHQT9NUkXK9oEobOYq0kaPICoJ+60/Tn7sI0jMbOXpWkXK0rCLlekGVNnIUaSNHkRUE/TRNFSnXC6q0kaNIGzmKrCDop2mqSLleUKWNHEXayFFkBUE/TVNFyvWCKm3kKNJGjiIrCPppmipSrhdUaSNHkTZyFFlB0E/TVJFyvaBKGzmKtJGjyAqCfpqmipTrBVXayFGkjRxFVhD00zRVpFwvqNJGjiJt5CiygqCfpqki5XpBlTZyFGkjR5EVBP00TRUp1wuqtJGjSBs5iqwg6Kdpqki5XlCljRxF2shRZAVBP01TRcr1gipt5CjSRo4iKwj6aZoqUq4XVGkjR5E2chRZQdDvuWm6OvM30zS1Q5U2chRpI0eRFQT9npqm0rv8JpqmdqjSRo4ibeQosoKg31PTVHiXX2iaHkaRFQSp0kaOIm3kKLKCoN9z901pjAonaH5+yE/2P+bgAW+c8zs581fkefFk39KbjouIiIiIiIiIiIiIbMNu939/X98nBmIizAAAAABJRU5ErkJggg==;" vertex="1" parent="1">
          <mxGeometry x="71.00156284877241" y="81.99719918387272" width="300" height="209.84" as="geometry" />
        </mxCell>
        <mxCell id="kc352DVUYK6wXFfk50S--4" value="" style="shape=image;verticalLabelPosition=bottom;labelBackgroundColor=default;verticalAlign=top;aspect=fixed;imageAspect=0;image=data:image/png,iVBORw0KGgoAAAANSUhEUgAAAk0AAAGcCAMAAAGEqVTrAAAAAXNSR0IArs4c6QAAAARnQU1BAACxjwv8YQUAAABpUExURf////n5+WxsbFlZWcXFxY2Njenp6WRkZKurq7+/v6Ojo3l5efj4+Pz8/IuLi2BgYPHx8VxcXNvb29fX13h4eAAAAACwUIqKitnZ2Xp6esLCwvX19WhoaERyxHAwoMAAADg4OCAgIAAAADMxVH0AAAAjdFJOU/////////////////////////////////////////////8AZimDlgAAAAlwSFlzAAAXEQAAFxEByibzPwAAFm1JREFUeF7t3dFu4kgThmEkI5HkCJHNcLQ7+e//Jn+3/eI2uKsoEzq2k+/RamfifNhdRU0IcQy7tTrsGv72BC/8KWv2p8Vfv8reVfM6c66+ZVWzaVdx2lXc1nbVvPKXK/+2+OutblfO529pV9+xq9OtFD3913qfSLvqPs/HCbspStFd2hUfj9xZ1YR2FdpVjs7d1cuev1w8vquJre+q/PmRleyq/f7qxD/LJEVD/5xHn2dPI39bTypQu0qes6vQoeSb7Q/85euK317J2nT/BMtebx9S73B2deLPKGdXc2lXcc6udA/e2Nyu5n5BdnZVHIbucbys25Xz+VvaVe1ddfcgz5gHKTrjqbP3JSFF737/GKNdFXd15s+LHJ29q+bmgf4Lu7q19V2VPz+yjl11/xT5Z5mk6NynztN/zqHnaPc+39OuEvfz//Dn3V3dP9TMb9zlB2v/WeupuMiPlB4GEj6MObXfPHrfvH8Va3rWc9rnYE1a1F2sSYu6izXNW9Rr1X97jy2qOe1PT/ytuSnWpJm6izVpUXexph+wqNOO826n8fnv52FNf/jQ9OAXpvQ0NOHDINbUdoqbz7z9HexTi7qLff7aRcWfHrPPb1jUjAdk9tnuNP0kKOETLtZU/+5jTVqUgX1qUXexz+9YVPtA2J9fMR6Q2eef/pxZcup+kp4QcXHz0e35xI1ZD8js86pS1rTc3cc+f/6iuHno9kXsU4tq/+kd3cc+9vmti3pp9qXrytK5mGShTpWxJi3qLtakRd3FmpZb1Kn/5/cxxpr+fnywzz8fH+zz348P9vkf4QJuPuf23VpEZDntV4Im+Oz4uzTply7q/mB/tkO7oGP3t6W/bJWOrzVNaU0xWlOM1hTzy9fEN7/pe3Lfutd0aB+Dqz7esaJ5a3rlDMN61tR+s/J66H5HdEVrGmhNU1pTj49NWlOPj01aU4+PTVpTj49N+fjpMbh/GryuNbX/a61nTekHBv2PMFa0poHWNKU19fjYpDX1+NikNfX42KQ19fjYlI+fHu/eut9fWdOa2ifB/Zrq/o7r3V9yHfUk/dA+1idOCqZzlTOworZP3Nq6fen4WtOU1tTTmlysSGu6gxVpTXewojlr6p5z9r+x0n3sYI/fsab2Mbh/HrznJV8s7JEXiOjw8OlhRby2RIfP3Bj1JP48mD22dbKi0O8bsaLq88SKtKYi9qg13cEetaY72KPWdAd7/J1reklng73HYPZ4tU9WVGtNTXoM7k5SG8+D2eP4MbT2Y/Bpt3vt3+hkPX3KtKYpram38jVx6+vba009rcnFrbe+pvQY/O2PLdzaWlP3GNz5vsfg8u3zmtJjcP+3qz5xgcrf/gX/Ot/Xp0xr6pHpaE09rcnFrbWmO7i11nQHt567pv7VZZ+6Jm495/bXa+pfppYLK3vs8e/f4YrMP8MVmf8OV2Tal3Ry61m371ZxUX5bOBEREantZXh3i5Vd5L0ybXf23fdQozbxPc2vVZqY/Uv6kc9r/6sPuP6u7/eJ1q8+xahPMepTjPoUoz7FqE8x6lOM+hSzrT7xI9OM7Y9Tn2JK9R/T85bW+DmN+jTV9ufUPg8+n5vhPfR2H/wi+zbQnYztjyv16dz/XOX1uHvrXyanpXmKUZ9i1KcY9SlGfYpRn2LUpxj1KUZ9ilGfYtSnKZ4Hn8Yvr60+TfE8+NQ0uVP98+Ducu8N/I/uZO/jzz7yv1KfeB7cymeENU8x6lOM+hSjPsWoTzHqU4z6FKM+xahPMepTjPo0dTkfvGt4+tJSn6bS8+B0Gdf58jSvpT5N5efB6tNFtP6v94mLEjO210B3snYbR836aJD6FKM+xahPMepTjPoUoz7FqE8x6lOM+hRTqp/nwS/j34xWn6Yuz4PH75WtPk3l58HPPB/M6rJ2Gy8/k/XRL6M7WbuNo2Z9NChav/oUoz7FqE8x6lOM+hSjPsWoTzHqU4z6FKM+FRz6V6t8/Pkdq8vabawua7fRnay79ddx1KzdxlGzPhpUqr99Vtc9D3785wWsLmu3sbqs3UZ3su7WX8dRs3YbR836aJDRp9f0m+Ovo9dAVZ9i1KcY9SlGfYpRn2LUp5if2SeOmnW3LlGfrnS3LlGfrnS3LlGfrnS3LlGfrnS3LinWz/Pg3Wf3/476NDU8D/7xPy/gqFl36xKjT93z4FifeMORrN3G6rJ2G6vL2m2sLks7fAKOmrXbOGrWbuOoWXfrkuicqE8x6lOM+hSjPsWoTzHqU4z6FKM+xahPMeqT7djkJ8Lr7RNHzdptHDVrt3HUrN3GUbO0wyKnT8f2ufDwDE99Mh2vftFeRERERERERH6n/gKEphm9Lp1M/NP913rr/i9Fx/3lp036mZMjvdB/1yCubEn+4T3Qfy36MDL87HI0TM6POn+FUv1N+o2ntkejL+BqU4jaFKI2hahNIWpTiNoUojaFqE0halOI2hSiNoWoTSFqU4jaFKI2hahNIWpTiNoUsq028Vu8GdsfpzaFqE0halNIqf6mfzm1x19TbWk0J2P740r1c55udJpObeLPkXSyN7Xo3DTHfksbS29zvhk0J2P74wptuvwOwXk0UJqmKX4jpe2R2oRS/af0+03N7jh6nVW1KURtClGbQtSmELUpRG0KUZtC1KYQtSlEbQpRm0LUphC1KURtClGbQtSmELUpRG0KUZtC1KYQtWnq0J/wzScM1KZS/TrrO1Go/3KtbzM+AXU6nfbp9OcW/vdOc7LxZx/6X6FN+crxfBmrpmlqeB0CtemiVP++P+vbNAc2qE3B+tWmELUpRG0KUZtC1KYQtSlEbQpRm0LUphC1KURtClGbQtSmELUpRG0KUZtC1KYQtSlEbQpRm6a41nf3ml9GVW2aurwm7z9q00Wh/uFa39GL8qpNE5ezvi/jNvVniTeC5mRsf1xpTIazvpqmi1L9XOv75DbxjowDNtdAc7K0kcMOumRUsH61KURtClGbQtSmELUpRG0KUZtC1KYQtSlEbQpRm0LUphC1KURtClGbQtSmELUpRG0KUZtC1KYpzvq+7A75NXn58wtY3YDNNdCcLG3ksIMuGVWq/3LWN73TKNSmifwKz22/oDZNFK/1Tac+37+E1Q3Stv9udadYv4zmZKXjk40pjUmda31Z3SBtozlZl/wympOljRx20CWjSvVz1vfJ1/qyukHaRnOyLvllNCdLGznsoEtGBetXm0LUphC1KURtClGbQtSmELUpRG0KUZtC1KYQtSlEbQpRm0LUphC1KURtClGbQtSmELUpRG2aOjaf6Y/zJ+dXWvPaxOKytJHVDdI2mpOljV/HUbO0kcMOumRUqf7hBNTLgyfHWVyWNrK6QdpGc7K08es4apY2cthBl4wq1H/krK/alBXqv7wQ9nDutzXvWl8Wl5XOuqZtNCdjB1/EUbPS8cnGlKbp8qsWuUuaJv4ca9KvonyOu6Q28ecdalOI2hSiNoWoTSFqU4jaFKI2hahNIWpTyA9tE0cdpG1FatNY2lakNo2lbUVq01jaVqQ2jaVtRWrTWNpWpDaNpW1FatNY2lakNo2lbUVq01jaVqQ2jaVtRaX6Oeu7O3ev89xRm6Y463tIJ+ygNk0MZ33TRb9QmyaGs77jNp327++cAb2PxWWls65pG6vL2MEXcdQsenxuP1WapstZ331kmv7earexuCwFWd0gbWN1Wdr4dRw1Sxs57CBt46iDtK2oVD9nfWP/6GhO1m5jcVkKsrpB2sbqsrTx6zhqljZy2EHaxlEHaVuRXf8VtSlEbQpRm0LUphC1KURtClGbQtSmELUpRG0KUZtC1KYQtSlEbQpRm0LUphC1KURtClGbQtQm26EZzhmst00cNWu3cdQsBTnsIG3jqIO0rchp09tud75cxao2mQ6jU1Bqk6kZt8nE4rJ2G4vLUpDVDdI2VpeljfNw1KzdxlGzFOSwg7SNow7StjL6UNBOU35ddbGcXvpz5CIiIiIiIiIiIiIiIiIiskXH9Gbar01+MYJ20yG/v7bIDP3kvDajX7c4DO+uLTLHvv+qdMq/Wbg753cUEZnjeJmm4aHu3AxvKDLCr5PJr8Ug+PqvRPnr0dv4MS8L7k1+qOj9f2paaYJe06Pd9ffjmabpd3vu/a9p+t00TfI8miZ5Hk2TPI+mSZ5H0yTPo2mS59E0yfNomuR5NE3yPJomeR5NkzyPpkmeR9Mkz6NpkufRNMnzaJq2gpftdBBckKZpKxgZB8EFaZq2gpFxEFyQpmkrGBkHwQWF7/9D04yupjumiw6m1/pqmuphZBwEFxS8/9+uroA6FQapo2mqh5FxEFxQ7P4/HbovS5erM83rfDVN9TAyDoILit3/XDnOH8dDd2XdYTpTHx8nqYSRcRBcUGyaupdIya9q0X9tunqNi56+NtXDyDgILih4/+/7V9xpxydd63tszmy6oWmqh5FxEFzQc+9/TVM9jIyD4II0TVvByDgILkjTtBWMjIPggjRNW8HIOAguSNO0FYyMg+CCNE1bwcg4CC5I07QVjIyD4II0TVvByDgILkjTtBWMjIPggjRNW8HIOAguSNO0FYyMg+CCNE1bwcg4CC5I07QVjIyD4II0TVvByDgILkjTtBWMjIPggjRNW8HIOAguSNO0FYyMg+CCNE1bwcg4CC5I07QVjIyD4II0TVvByDgILih6/x8PzefwNmL7pv2gKbzfoaapHkbGQXBBwfv/7ZD+n6/1nVz71NM01cPIOAguKHb/nw7dl6XLtb57TdP3Y2QcBBcUu/+vr/XtvY1e5OIiXeu77y/75I+W/vaEv70HrvV9P72/51t0vvdvj13r2yu8GoG+NtXDyDgILih4/3evitJf6/u5353TV6XSu45rmuphZBwEF/Tc+1/TVA8j4yC4IE3TVjAyDoIL0jRtBSPjILggTdNWMDIOggvSNG0FI+MguCBN01YwMg6CC9I0bQUj4yC4IE3TVjAyDoIL0jRtBSPjILggTdNWMDIOggvSNG0FI+MguCBN01YwMg6CC9I0bQUj4yC4IE3TVjAyDoIL0jRtBSPjILggTdNWMDIOggvSNG0FI+MguCBN01YwMg6CC9I0bQUj4yC4IE3TVjAyDoILit7/3bW+o0uejufPM38d0TTVw8g4CC4oeP9fv69vGq79WdP0rRgZB8EFxe7/m2t9249PO03T92JkHAQXFLv/b6713R+O7Req4jR1l3zuT6d3eTJGxkFwIaf3x6713TeYXDqur031MDIOggsK3v/X7+vbWe0j3b/3kNsYRsZBkCpt5Cp47v2vaaqHkXEQpEobuQo0TVvByDgIUqWNXAWapq1gZBwEqdJGrgJN01YwMg6CVGkjV4GmaSsYGQdBqrSRq0DTtBWMjIMgVdrIVaBp2gpGxkGQKm3kKtA0bQUj4yBIlTZyFWiatoKRcRCkShu5CjRNW8HIOAhSpY1cBZqmrWBkHASp0kauAk3TVjAyDoJUaSNXgaZpKxgZB0GqtJGrQNO0FYyMgyBV2shVoGnaCkbGQZAqbeQq0DRtBSPjIEiVNnIVaJq2gpFxEKRKG7kKNE1bwcg4CFKljVwFmqatYGQcBKnSRq4CTdNWMDIOglRpI1dB9P6/utb3eC6/ra+mqSJGxkGQKm3kKgje/7fX+rau3/qwp2mqh5FxEKRKG7kKYvf/7bW+re79D29pmuphZBwEqdJGroLY/V94X9/2oa/0tam71nfZi33pmY3cf3cRXAdGxkGQKm3knu5Hvq8vPbORY2QcBNeBkXEQpEobuQqC9//oWt/P/a77EnXe+vdNjIyD4DowMg6CVGkjV8Fz739NUz2MjIMgVdrIVaBpchBcB0bGQZAqbeQq0DQ5CK4DI+MgSJU2chVomhwE14GRcRCkShu5CjRNDoLrwMg4CFKljVwFmiYHwXVgZBwEqdJGrgJNk4PgOjAyDoJUaSNXgabJQXAdGBkHQaq0katA0+QguA6MjIMgVdrIVaBpchBcB0bGQZAqbeQq0DQ5CK4DI+MgSJU2chVomhwE14GRcRCkShu5CjRNDoLrwMg4CFKljVwFmiYHwXVgZBwEqdJGrgJNk4PgOjAyDoJUaSNXgabJQXAdGBkHQaq0katA0+QguA6MjIMgVdrIVaBpchBcB0bGQZAqbeQq0DQ5CK4DI+MgSJU2chVomhwE14GRcRCkShu5CrYzTbTMQZCe2cgxMg6C60CRDoJUaSNXQfD+Px1e0oUrXDr+dk5XZ37z+9PRMgdBemYjx8g4CK4DRToIUqWNXAWx+/+YhunmerrXwgsRaJrqoUgHQaq0kasgdv+XrvUtXzle71JfWuYgSM9s5BgZB8F1oEgHQaq0kXu6+LW+3RiNXofgrXBtpr421USRDoJUaSNXQXCa+qvEh2vFXz8nbxDd0TTVQ5EOglRpI1dB9P7fN83nIX05em2/Pp27dxz/fJt846RpqociHQSp0kaugufe/5qmeijSQZAqbeQq0DQ5CK4DRToIUqWNXAWaJgfBdaBIB0GqtJGrQNPkILgOFOkgSJU2chVomhwE14EiHQSp0kauAk2Tg+A6UKSDIFXayFWgaXIQXAeKdBCkShu5CjRNDoLrQJEOglRpI1eBpslBcB0o0kGQKm3kKtA0OQiuA0U6CFKljRxF2sjNoGlyEFwHinQQpEobOYq0kZtB0+QguA4U6SBIlTZyFGkjN4OmyUFwHSjSQZAqbeQo0kZuBk2Tg+A6UKSDIFXayFGkjdwMmiYHwXWgSAdBqrSRo0gbuRk0TQ6C60CRDoJUaSNHkTZyM2iaHATXgSIdBKnSRo4ibeRm0DQ5CK4DRToIUqWNHEXayM2gaXIQXAeKdBCkShs5irSRm0HT5CC4DhTpIEiVNnIUaSM3Q/D+v77WN11zMLq0LtM01UORDoJUaSNHkTZyM8Tu/+m1vuO3+M00TfVQpIMgVdrIUaSN3Ayx+396re/4st/s8r6+77rW9+ko0kGQKm3kKNJGLuzxa331tem7UaSDIFXayFGkjdwMwWm6udb3mdP0964+R8scfU7TdA85irSRmyF6/19d63vqrvVtDv2nRjRN9VCkgyBV2shRpI3cDM99bNI01UORDoJUaSNHkTZyM2iaHATXgSIdBKnSRo4ibeRm0DQ5CK4DRToIUqWNHEXayM2gaXIQXAeKdBCkShs5irSRm0HT5CC4DhTpIEiVNnIUaSM3g6bJQXAdKNJBkCpt5CjSRm4GTZOD4DpQpIMgVdrIUaSN3AyaJgfBdaBIB0GqtJGjSBu5GTRNDoLrQJEOglRpI0eRNnIzaJocBNeBIh0EqdJGjiJt5GbQNDkIrgNFOghSpY0cRdrIzaBpchBcB4p0EKRKGzmKtJGbQdPkILgOFOkgSJU2chRpIzeDpslBcB0o0kGQKm3kKNJGbgZNk4PgOlCkgyBV2shRpI3cDJomB8F1oEgHQaq0kaNIG7kZNE0OgutAkQ6CVGkjR5E2cjNomhwE14EiHQSp0kaOIm3kZtA0OQiuA0U6CFKljRxF2sjNoGlyEFwHinQQpEobOYq0kZvhsWm6ufR3oGmajyIdfY4iHX1uc9NUepvfjqZpPop09DmKdPS5zU1T4W1+e5qm+SjS0eco0tHntve1qR+j6RWanx/yq/2PQZhjeumvyOPSS+4U33VcRERERERERERERGQbdrv/A0PAMNXaEpzBAAAAAElFTkSuQmCC;" vertex="1" parent="1">
          <mxGeometry x="371.0027626255582" y="81.99862775530141" width="300" height="209.85" as="geometry" />
        </mxCell>
        <mxCell id="kc352DVUYK6wXFfk50S--5" value="" style="shape=image;verticalLabelPosition=bottom;labelBackgroundColor=default;verticalAlign=top;aspect=fixed;imageAspect=0;image=data:image/png,iVBORw0KGgoAAAANSUhEUgAAAk0AAAGcCAMAAAGEqVTrAAAAAXNSR0IArs4c6QAAAARnQU1BAACxjwv8YQUAAABmUExURf////n5+WxsbFlZWcXFxfz8/IuLi42NjdfX12BgYPHx8enp6WRkZKurq7+/v1xcXHp6etvb26Ojo3l5efj4+MLCwvX19WhoaHh4eAAAAACwUNnZ2URyxHAwoMAAADg4OCAgIAAAAHCACWwAAAAidFJOU////////////////////////////////////////////wAN0MNxAAAACXBIWXMAABcRAAAXEQHKJvM/AAAZZUlEQVR4Xu3dbW/iOteGYaQgNEK0Ev00Hd2zef7/r3xs58RJIIusgEPi6XXM3n3JXA32yhpKg0l3W3XaHRo+fF3c03f7YQnV7+pPwIejyuzqtA9vNjeq5N/f1fl83of/HW/irm63s5dEZe882FXzGd58/3KLu+LDq62U/X8Bn99acld29tGujuHO/ftMBa9ilg9vxF3d/PXjsscsH954NKroX97VKXV7+3HnqV0l2lXn0a6a0KxLj+pvxOedn7yr8UcyT+0qPRjt7ypnn9hV8G/v6qbbn97VR7y72nat/gtq39XIX3/xXt4n3FuV+tn5s9kf+FCi2OwPH2z7Pd7VrLI/3tUsP3lX4dtN+Idz+8Ow/Sbtarhp+LOzX9oVH7+oxl3FsvPj2LS0Kz6+2kjZ47dB61uq3+xd2dEHuwoli/9RwKsY5cMb3a7YEDwse4zy4Y1uV2yY8m/tauS787O7GqFdjf39eKc+tatxKWo+QNau+p7bVbMf/sOJ0UKj+td2dfjgg6vnd9Wcb+6vnt/VnTK7Gv6QuvKu8uP2ebsa++uRbxPyM6XvXg8fbK2rfz5sM37OoNL9SMTnc21oUKfdfveR7kS3VKkmjGpzg8o0KK/tDCp1U3uPvplBfTT7U3iXHnfo8HlpUI997I7b66nwL+9TjT7PwoNKPwdF/I3P5KDY6ay9MqRZg/podh/n2OrBZgbFj6PxXn1Dg+rRoLy2NKhwx9menNjQoE7hPj0t89Dhc9OgHolLei+7i+9RAjtdvlJhUGFEvh9G2Wl79jHhLx5gSG84fAxJg7Kw0586qBP353VVip2GB9nsVIPSoB6KT7Dt+WF0P7oMhp3+aZdnRGeG9PdvXHb0GF/858+ZLx5f4WEuXdLh8xoMKj4BGP2YQfHFU1+d2uy7jzH99/3NTv98f7PT/32z079/Cd/jq//LX/0nf3X35WRbaRwisp74De9wbs8jbER88vF02Nbz7PG8RrOJKm3xblNj8vnpY+KBQXi085jG1OJT0/bHdD13sAyGNHNM4bsLHy2BIc0bU3NetFAMST0+gSFpTBMYksY0gSFVPqZ26ciSj8cZ0owxNTwDkwxe+VfoTXe2b7D5/k03pnY1S/tc/zIYknp8AkPSmCYwJI1pAkP6B8a05L3Ts2PK31n8Lz6egSHdvlT5Vu9+PGAN7lIYknp8AkPa6Jh4csN4Hkhjai00JvY570k4hlT5mNLqVu/5cfa59JjS4/EPnkcIj54fYp/GFQ4MDKn37Dt/MdS7H4/f69yn7Nnn0nWahX1qTBPYp8Y0gX1qTBPY5xvGdPrcHS98/Bj7fEed3Gd62Oc7xhS+u/jOkLPPd4zJjX1qTBPYp8Y0gX1qTBPY5+JjSg8yby6LY2GfS4+pXbW9rZ8R4hqaqH113gT2GXbK0kHHcsj39RND0phGsU+NaQL71JgmsM+fOqbeM52Psc93jCnck29tTM15f2wefG9hn4OdMqTV+ol9akwT2KfGNIF9akwT2Of7xpTW0Dw+Z88+3zemdM7+OqTxc/bss/+St/yat7j8ZQJf/eecX/PGfof23ZjCcD4/Hq+hYZ/vq5MD+9SYJrDPDYyJV6uNvwRPY8oY0s8ZE189+PLbMaV78yGGtN6Y0r152NzDkMZf0Tn+msw+vnrOl6eRdOJvbBIREZF3+7gu+d0fwo946SMZ0YQfPcOjlfOxLVd3bpMHNj/R2Ane80d8oBkf1x1ipXp14v0PNGvqqpOP6uSjOvnUUyd+1u6w/Wmqk4/q5KM6+ZhTP8YHUVHviQ7V6R4PytuHmvjmqaXtozodtj/NrFOoDgVSPwWzpq46+ahOPqqTj+rkozr5qE4+qtPQKf5+ifBQsznuzk37WyYS1WngFB6Kp0KdP4bPI6hOA6FOn2150kPxQ14nojr5qE4+qpOP6uSjOvmoTj6qk4/qNKL3oPxKdbrXf1B+pTrd6z0o1+PxmVNXnXxUJx/VyafuOvEqkU4b9VGdfN5bJwaYsbk8qtMJ27jNThv1UZ18VCefsanHh5jtq92awufHGWDG5vKoTids4zY7bdTHqFNa0sMCqPApVKehpjnv9vtD0zS7ff8Xz6lOPqqTj+rkozr5qE4+qpOP6uSjOt2LL35tT/gWXNfDADM2l0d1OmEbt9lpoz7m1OM6+/Q8Qnd6PK2z5/JMz2GAWbuGfQFUpxO2cZsdBjVt8BvdbrQvfv3cd8+2qJ+8VCcf1clHdfJRnXxUJx/VyUd1GuCh+PEjPtbU+fFkbOr5oXj7E0vv55b4UJfHqE9hgFnYxBX8Om3yRVSnE7Zxm5026hBmPVan9FB8HyoVKnQY1In3T2OAWdhEdTpt8kVUpxO2cZudNuoza+qqk4/q5KM6+ahOPqqTj+rkozrdu16HZun1BVSn0yZfRHU6YRu32WmjPubUQ3n6D8qT8HicR6hPYoBZ2ER1Om3yRVSnE7Zxm5026uK4Do36KZo19VlhBpjFbQwwC5uoTifmXsZtdsI2brPTRn1UJx/VyUd18lGdfFQnH9XJZ3TqzfUlr5+7/aX3gFx1GuAlr+nd888jMMAsbmOAWdhEdTox9zJusxO2cZudNupj1Cm+5JV3z77ulQFmcRsDzMImqtOJuZdxm52wjdvstFGfWVNXnXxUJx/VyUd18jHD/NK2LG5jgFncxgCzsInqdGLuZdxmJ2zjNjtt1Ed18vnhdeI2s/TFYybrxGPzRHUy8di8tdE6caNZ2MRtdsI2brMTtnGbWdzdKEeduByNiIiIiIiIiPxI16d+w7t47ScZ9Tv9t9udBq/9kaHjZ1ud41lleiBekC5Wp2lXr37kc5i/+UXoPxEl6Dl+pDLtw91S6qX0DzCaOt/5Dxub+iWe3Y0VCt30WeUVx4ubM3WVyUVlclGZXFQmF5XJRWVyUZlcKioTCwgyNj9NZXJRmVxUJheVyUVlclGZXFQmF3Pqp3QxrN3uM5+VU5lGtKcwd7vf7XUKIpXpzvWE+IHLOUTp+nN1oDoZm59mlelImT76ZeJ9BahOxuanmVO/PlmnMkXm1M/xaRWeN4DK5KIyuahMLiqTi8rkojK5qEwuKpOLyuSiMrmoTC4qk4vK5KIyuahMQ80lvj1cmt3u0jQ1rr2kOhmbnzY29XxGjpWqVypT3/X8bnqrMiUjU78+W7DbneJVLb66S4Bw/nz77q6RzfanjXXT9bkn/u21/wADddNAE++ULnHl/LnW5fNUJ2Pz0+ZMXWVyUZlcVCYXlclFZXJRmVxUJheVyUVlclGZXFQmF5XJRWVyUZlG9E6IQ2W61z8hDpXpzuCEOFSmOzcnxJOXf337+1CdjM3POe/t5fM3J8QjddO9dD0ZTohDZXJRmVxUJheVyUVlclGZXCovE789JEtBJ5XJRWVyUZlcVCaXt5aJ8WVsXgDVyeI2bjRLQSeVyUVlclGZXFQml7GpN7vPuHr3sLv0T/GqTDfyicv9UWVqjUw9/i5IToOHD/q/0v7VU+GML2PzAqhOFrdxo1kKeoyfC89Pqny0p3fz1T/UTQM8RZfuoAKVaXzqXEUm/Hs7hDf5iRWVyUdlclGZXFQmF5XJRWVyUZlcVCYXlclFZXJRmVxUJheVyUVlclGZRrB8vil4TV7Gl7F5AVQni9u40SwFncypc25ut/sod7kGxpexeQFUJ4vbuNEsBZ2sqV9/Hetu96Uy2VPvls/3nzLYxwX0z2N8GafkF0B1sriNG80YlIvZTddnoboqqZtG8OtYe1VSmXxUJheVyUVlclGZXFQmF5XJRWVyUZlcVCYXlclFZXJRmVxUJheVaag9Db47xDOYzUVnL8enzmnwU3cGs6Uy9eUFz3uV6Wpk6rmJ4jr628uqpzPNz2J8Wdz290YKvozqZHEbN5qloM/Dy6rHegV5xfMi3UR1shR8GdXJ4jZuNEtBp7Gpc1n11E1FL6vO+LK4jepkKfgyqpPFbdxoloJOc6auMrmoTC4qk4vK5KIyuahMLiqTi8rkojK5qEwuKpOLyuSiMrmoTC4q053jqb1cw77JJy9VphEf6RIp1zO9icp05+aEePLyZdUZXxa3UZ0sBV9GdbK4jRvNUtDHXhc+VibeP43xZXEb1clS8GVUJ4vbuNEsBZ3MqV9fs6IyRebUu+vJpLuoaFaZGF8nbGN8WcxRnSxuex23mcVt3GiWgk5zpq4yuahMLiqTi8rkojK5qEwuKpOLyuSiMrmoTC4qk4vK5KIyuahMQyyfj++eXj7P+DphG+PLYo7qZHHb67jNLG7jRrMUdBqbOmfk0rt0BhMqUx/nd9uLyahMycjUebbg+qTBcPm8G+PrhG2ML4tn46lOlk7Rv4zbzOI2bjRrx+kz1k3t8vm8ij6dEo/UTQNp+Xz89xbePb18nvF1wjbGl8Uc1cnittdxm1ncxo1mKeg0Z+oqk4vK5KIyuahMLiqTi8rkojK5mNn/boVtjK8TtjG+LH4t1cnittdxm1ncxo1mKeikMrmoTC4qk4vK5PKzy8RtdmJujMo0EHNjJsvEefFIZTJxXjxRmSx53XO00TJxm52wjdvMYo4bzcImbrMTc2MmypRX0UffFobXCdsYXydsY3xZ/FrGl8Vt83CbnbCN28xijhvNwiZusxNzoyiBIZ8Ql4fSCXEREREREREREREREREREanPsfnY7T6bPZ/Gj38fwrtzo+eBZa5TaKbYQtfe+fq9O6ib5Cn79l6Jd7vUSamb9k2kjpIZjm0bnbl2cbqnSt3UOnUfXrGwTH4YDv9jh7SEt32LqW7iA/lBvEf9fP2O9nm9tjqPwoN+j12pm36ipY66uuknUjdJOeomKUfdJOWom6QcdZOUo26qCC9WtpFbjbqpIvSMjdxq1E0VoWds5FajbqoIPWMjtxp1U0XoGRu51aibKkLP2MitRt1UEXrGRm416qaK0DM2cquZf9SPp6a5dAvEd7vfzf3yJnXTEugZG7nVzD7qX+nXjnfr5o6nfW/dXKZuWgA9YyO3mrlH/XxiTS/3TufTub8KM1M3LYCesZFbzdyjzgsNrivE96fjYE1v9j3rV46JCz1jI7eaud2UXlgXmyq9TiW9ZOUS/s+/t+5K900LoGds5FYz+6jv29dphmbKK8T1ne5N6BkbudUsddTVTQugZ2zkVqNuqgg9YyO3GnVTRegZG7nVqJsqQs/YyK1G3VQResZGbjXqporQMzZyq1E3VYSesZFbjbqpIvSMjdxq1E0VoWds5FajbqoIPWMjtxp1U0XoGRu51aibKkLP2MitRt1UEXrGRm416qaK0DM2cqtRN1WEnrGRW43zqJ/jqqb9dUHTV1wxd2qOcbtxdWd10wLoGRu51fiO+vH26vNB+kTd9E70jI3canxH/fbq87+b5rqiNxrpqHZd+F5vSr6hZ2znXw+++g1vnPdN19cW0E1Jd5VwXS/8PegZG7nVOLtp5Orz6qa3o2ds5FbjPerpW1r8jhZ/EdQ5vlAldZauPv9O9IyN3GqWOurqpgXQMzZyq1E3VYSesZFbjbqpIvSMjdxq1E0VoWds5FajbqoIPWMjtxp1U0XoGRu51aibKkLP2MitRt1UEXrGRm416qaK0DM2cqtRN1WEnrGRW426qSL0jI3catRNFaFnbORWo26qCD1jI7cadVNF6BkbudXMPurWCvEb6qYF0DM2cquZe9TNFeI31E0LoGds5FYz96ibK8RvqJsWQM/YyK1m9n3T4xXiWXyVwb5dev5Lfwr9oWds/fC7/0Szu+nxCvFM900LoGds5FYz/6inpeD3K8RvqJsWQM/YyK1mqaOubloAPWMjtxp1U0XoGRu51aibKkLP2MitRt1UEXrGRm416qaK0DM2cqtRN1WEnrGR+98UcsWpmypCz9jI0TM2csWpmypCz9jI0TM2csWpmypCz9jI0TM2csWpmypCz9jI0TM2csX9u91E4UzEakLP2MgxQxu54tRNFaFnbOSYoY1cceqmitAzNnLM0EauOHVTRegZGzlmaCNXnPeoH0/N5boYfHc8XJomrWnah63N5bTFdeEUzkSsJvSMjRwztJErznnUv+7XyH1s/OrzFM5ErCb0jI0cM7SRK8531M+n+/W7X014s1c3vRE9YyPHDG3kivMd9dvXFgS/u5c9feVvgZ109flVF4ZTOFM/W8kfesZGjhnayBX9418Xfmxfl9K91Onz0n+VweH33QMn3TctgJ6xkWOGNnLFOY/6PrZTaqbYR+mz5BDvlX7rUfh70DM2cszQRq64pY66umkB9IyNHDO0kStO3VQResZGjhnayBWnbqoIPWMjxwxt5IpTN1WEnrGRY4Y2csWpmypCz9jIMUMbueLUTRWhZ2zkmKGNXHHqporQMzZyzNBGrjh1U0XoGRs5ZmgjV5y6qSL0jI0cM7SRK07dVBF6xkaOGdrIFaduqgg9YyPHDG3kilM3VYSesZFjhjZyxambKkLP2MgxQxu54tRNFaFnbOSYoY1cceqmitAzNnLM0EauuNlH/ebq84e45f4iquqmJdAzNnLM0EauuLlHffzq81ot9xb0jI0cM7SRK27uUR9ZIc4y36G0LjwtC/+1EgpnIlYTesZGjhnayJXlXhfeub/6/Nfoy1Z037QAesZGjhnayBU3u5turj7/ebl/vUqkbloAPWMjxwxt5Iqbf9S7q89f9rtD/KS5fLV/1aNuWgA9YyPHDG3kilvqqKubFkDP2MgxQxu54tRNFaFnbOSYoY1cceqmitAzNnLM0EauOHVTRegZGzlmaCNXnLqpIvSMjRwztJErTt1UEXrGRo4Z2sgVp26qCD1jI8cMbeSKUzdVhJ6xkWOGNnLFqZsqQs/YyDFDG7ni1E0VoWds5JihjVxx6qaK0DM2cszQRq44dVNF6BkbOWZoI1ecuqki9IyNHDO0kStO3VQResZGjhnayBXnPOrD1eDho+a6au5+EW+ibloAPWMjxwxt5IrzHfX71eDntrN0vfB3omds5JihjVxxvqN+vxqcpbxp6dxYR6mbFkDP2MgxQxu54pz3Tdfeyd3Uf5nB7nT/Eqhqrj7/dwq5LfyhZ2zkmKGNXMk/8Y336vM3q8EHjRW+D451Ex+shsKZiNEzNnJbQM/YyDFDG7nivEc9Pu5uV4OHNmq/vzW/j+3m/u/yuVI3LYCesZFjhjZyxS111NVNC6BnbOSYoY1cceqmKeS2gJ6xkWOGNnLFqZumkNsCesZGjhnayBWnbppCbgvoGRs5ZmgjV5y6aQq5LaBnbOSYoY1cceqmKeS2gJ6xkWOGNnLFqZumkNsCesZGjhnayBWnbppCbgvoGRs5ZmgjV5y6aQq5LaBnbOSYoY1cceqmKeS2gJ6xkWOGNnLFqZumkNsCesZGjhnayBWnbppCbgvoGRs5ZmgjV5y6aQq5LaBnbOSYoY1cceqmKeS2gJ6xkWOGNnLFzT/qx9OlyQvE49KnS2/dXKZuWgA9YyPHDG3kipt91L/adXOn9Em8unN/3VxH3bQAesZGjhnayBU396ifT+luqddC6qa3oWds5JihjVxxc4/6/esNBivEs7gufNVl4dNXn29j9IyN3Bb+0DM2cszQ9iseleL//Zp99fnzyGuhdN/0JvSMjRwztJErbvZRP19CO6VmitcLD6z7Jj5YDYUzEaNnbOS2gJ6xkWOGNnLFLXXUl+smCmcjR+FMxOgZG7ktYII2cszQRq44ddMUclvABG3kmKGNXHHqpinktoAJ2sgxQxu54tRNU8htARO0kWOGNnLFqZumkNsCJmgjxwxt5IpTN00htwVM0EaOGdrIFadumkJuC5igjRwztJErTt00hdwWMEEbOWZoI1ecumkKuS1ggjZyzNBGrjh10xRyW8AEbeSYoY1cceqmKeS2gAnayDFDG7ni1E1TyG0BE7SRY4Y2csWpm6aQ2wImaCPHDG3kilM3TSG3BUzQRo4Z2sgVp26aQm4LmKCNHDO0kSvOedSHV5/vPlvh6vMUzkaOwpmI0TM2clvABG3kmKGNXHG+oz68+nzvsxWuPk/hbOQonIkYPWMjtwVM0EaOGdrIFec76sPV4L13D64+f0725/OvsiicjRyFMxGjZ2zktoAJ2sgxQxu5ssLRdt43tf3DEvC7a9G/9XrhFM5GjsKZiNEzNnJbwARt5JihjVxxzm4aXH3+9lr07736PIWzkaNwJmL0jI3cFjBBGzlmaCNXnPeod1efj68tyJ+tcPV5CmcjR+FMxOgZG7ktYII2cszQRq64pY66umkBTNBGjhnayBWnbppCbguYoI0cM7SRK07dNIXcFjBBGzlmaCNXnLppCrktYII2cszQRq44ddMUclvABG3kmKGNXHHqpinktoAJ2sgxQxu54tRNU8htARO0kWOGNnLFbaeb/ptCjsLZyFE4EzF6xkZuC5igjRwztJErTt00hdwWMEEbOWZoI1ecumkKuS1ggjZyzNBGrjh10xRyW8AEbeSYoY1cceqmKeS2gAnayDFDWxtjgrY2NoO6aQq5LWCCNnLM0NbGmKCtjc2gbppCbguYoI0cM7S1MSZoa2MzvNhNw/XiPeqmBTBBGzlmaGtjTNDWxmZ4rZuG68X71E1zMENbG2OCtjZWazcNF4r3qZvmYIa2NsYEbW2s2vum2xXi2eVbfqD/4/A/48ja8LxCXOQV6SVQxmvqRERERERERERERES2a7f7f6+4xxRwTIIoAAAAAElFTkSuQmCC;" vertex="1" parent="1">
          <mxGeometry x="663.9966123744421" y="82.00148489815851" width="300" height="209.85" as="geometry" />
        </mxCell>
        <mxCell id="kc352DVUYK6wXFfk50S--6" value="" style="shape=image;verticalLabelPosition=bottom;labelBackgroundColor=default;verticalAlign=top;aspect=fixed;imageAspect=0;image=data:image/png,iVBORw0KGgoAAAANSUhEUgAAAk4AAAGcCAMAAAFvnu/oAAAAAXNSR0IArs4c6QAAAARnQU1BAACxjwv8YQUAAABmUExURf////n5+WxsbFlZWcXFxdfX12BgYPHx8enp6WRkZKurq7+/v1xcXNvb26Ojo3l5efj4+Pz8/IuLi3h4eAAAAI2NjXp6esLCwvX19WhoaACwUNnZ2URyxHAwoMAAADg4OCAgIAAAAEw/pJ4AAAAidFJOU////////////////////////////////////////////wAN0MNxAAAACXBIWXMAABcRAAAXEQHKJvM/AAAbZUlEQVR4Xu2dUVPrOLNFU5WcSgUqPABPX80M9///yiupV6Q4cZN2EmH7sNfUEBA7dvf2PsYY2d4smC2vD3M4pg+f9vkz+IsX9bL5SLY/ZVHJ9GmL+l+CT0f5mxe1fd2nRR2Px136P/AhL+pymEUV/mKvPp6Xq6/N5vWv9sq4WtQ/CT694JtFbV+z7cc/Q/Ki+PSCvKiLb+f9cGVqVf63F7eow3hE71nUR07o3+yV8ZxFHX7Eq38TfN34xYva5R/18uqMbxZ1yD+mn1XVxU6maacvKvH8Rf2XmGVRl9+2Y6N8fJXIiyoHUPbTKWv5+dTI3z7mbx/zt+19ZRnwlKqMH1/U7TWlQ6xnLSpFVPw022fa/s6r+DnS5kvHkBMo/wafwwoXlSJ68fvxdx/yoi6HWdBUvq1qGj+0qImd+ot63Ryn7Rm+q2oiMy6q/Jwb59ai4r86l8OP/G3vd+dLspRPL6mL4utbzL2o/CvcNXctahwtyvn+yDHDvYsaoUhHDhATWtQFWlTvRW13w7Rn6ZOqes6ibv9mleixqPzt4feP27fN5k8+Ugr96tx+eJVFlfeN/PB6tKozfnBR9fs/sajxH4XiN3LgNOtC4XTRslBRURZT1PkfsfsUlfe4Gb6cioqKsqCiXjb7clJ7UUWlvfmrnVzV5ouior6j7DyPm3S0noq6PNv0FKjpf3zpsPMOVLT5otwsqvzSkODLGNQ0rai06+TcUOeieHPo7WW/Wf5EsqCiGioqymKKsiPP7dKC3lBRUZZUVMqTnWlcUFGHdJBg55bWvvnKWbME3/gOalJRN6GmKUW9pP+P04NOTZ2KOuZ/ex/b2O99LLR7UeeoqCgLKupQT8t/ltkjV7DQ9DsSC/3nT/lDSYZfkL6Dd9vswwLfGDLxVywWmo78WegSNh8LXUJR+Y8xmTmKKjuofNlV4seK4s3u279yyo+v1+enqGmWos5RUQUk3/HMonj3+dt5c7go5mKfw0L/+/xkof/7/GSh/3x+stB/EV/Du8/fzpvT23nz8O2lBCHEnBx25SB9WRzzX2YWxjJmgixxt6maYqimGKopxnlNaRc+7VKATrSa9qmml1RTv7I40ExHz99z5lO+Kuudk2RdoKQpNXWHklTTDShJNd2Akv6CmtK+6Xy225OhpIk11Tmmw6vjnvOhndr0NeXDoKaXbdeDX0pSxm9ASarpBpSkmm5ASZNq+ui6x7ynpvI3zwO/n8844264zzx+5fP2Zd5WFyhJGb8BJammG1BSr5r4S8A/fBmDktZf08vWJgTfhpLurYl3O28f+pSOMr/skxs7TZbpXSc/DiUN/gJ/zcVxZvxcAcv8CZ/CsEzVdAOWqZpuwDJ/Y037fFlO9Cwdy+xdUznOjN7ViWX2rikfj+fj3tB+k2X2r2kCLFM13YBlqqYbsMxfWtP2dbNf2P6pHGfGYJk/UVPaZ8bOaLLMn6gpDMtMC2VW1aT5a6rpWyhJNd2AklTTDShpUk2nk5kBWGbvmvLf8nNNE48zKamTT+lYfDv9eJySlPFRWKZqugHLVE03YJk/UVPaPS1uX5COfa2m/Gf1a1gmt3LL3HeZUr1OiW9cMKhpe9ztt9/8XYplpk5Z5k/4dAOWqZpuwDIXUBNXg/xnd9crqKYRqKhPTbx78Pbzmj7ssrdLqGiOmvI51jy9oBz+Hu1+lwUq4s6XhWftM4/l8RIZ1lU49+m4zfOfrvaZVDTPtnOgItV0AypSTTegontr4s0TrnRcR01X+02WOV9N3PmBaysLLPO//+olme2azPuu6Lz19lLJOcu7iksIIYT4JbzYefu7H7D0W0gHUDzAuZ1H5MDmV4IFVxxfkkGveXr7mU+8/kImtS6fYsinGPIphnyKIZ9iyKchh82unLN//Tg/KpBPF+Tjy2zPez4iz7NXTvBY7DXAycAKw3czGpEUIzvHajOO6ryjFeUJeyoM382k1uVTDPkUQz7FkE8x5FMM+TTCgdvRvNfDAvk0wiEdb2aj8h3PTsina/J0+zxRM2G5SsinGPIphnyKIZ9iyKcY8imGfBqy35Z743zkU3Tb7Ved+yufBuzTAZOdxMw+lU8M+TRg/1LtKac16/xR+RRDPsWQTzHkUwz5FEM+xXjYJy5AqDDcAeypMHw3v8gn1tkwZQy3dc7TJdqRpny65nTet3wG8mmE7fa42e2OZ9Mw5FMQ+RRDPsWQTzHkUwz5FEM+DXk5HTS9llueVeTTgD3zWDdvdkDe5mceb91N/gYUWGG4A9hTSZWzzgbSm+RHJo1GpBxclhvVvacP9bSv8hREPsWQTzHkUwz5FEM+xZBP1+Tr8m1igc5nJtzWkzt2PhO3Mp/5iIuDr7ugwArDHcCeythxZr4OKsZu/Dgzs3tLVr2+7lKuKl3yxK2fKkX4MNhTSUOss2HKGJNal08x5FMM+RRDPsWQTzHk04D9IR0QpNddvrKl+/lM7KkU4cNgTyUNsc6GKWOMtX66Lr8caF5cl89h3J1QYCWPYU+lCB8GeyppiHU2THkb93zm6bp8Jhg877p8CqzkMeypFOHDYE8lDbHOhiljTGpdPsWQTzHkUwz5FEM+xZBP1+zzfSET3efTYU+lCB8GeyppiHU2TBnDbT3ZY4dP9/pEgY00RoGVrMOeSh57HNZZSUOss2HKGG7r6eDSji/lU2ZS6/IphnyKIZ9iuGIeptFIYxTYSGMUWMnvxZ5KHnsc1llJQ6yzYcoY8inGL/eJdTbKm0cYb92uyy8voevycaeRxiiwkcYosJLfS4GVPPY4rLOShlhnI42xzkZ58whjrTM/0y7PPzt8kk9DuC6/Xp5/+7p83GmkMQpspDEKrOT3UmAljz0O66ykIdbZSGOss1HePILb+hjyKYZ8iiGfYsinGAv1iXVW8hjrrKQh1tlIY6yzkd87hnwakt87xm2fOObMyCeXek1QRj65nN0LSgghhBBCCCGEEL8em0h3fjmCGIFrEuTS95zu1S6fvqdeC7R5sYtcEh88Ev034uXl8p72mdvn0v9e3N6/8m1rt5vXs/sXyKcY8imGfIohn2LIpxjyKYZ8iiGfYsinGPIphnyKIZ9iyKcY8mnI6RLqzfZ9c7Rbaxfk05D8KKBden3ZyKcTY72nMOXTmcml5FN+3A3k27SvBGZlNhi/GydPu+RTeilXnNfnJq0oT7jTYPxuxnqvl+TLp8po7/nfWtlDlX93NpaQTzHkUwz5FEM+xZBPMeRTDPkUQz7FkE8x5FMM+RRDPsWQT2Ocrp8OXEa9PHCnwfjduL0zj3Vz4BRLQj5dc7rOfH+UTxmv99M81u3plF1iPed9r25n3+W8b4Z5rMft2UR75WmErc1jraeAE/IphnyKIZ9iyKcY8imGfIohn2LIpxjyKYZ8iiGfYsinGPLpgkN+kGL6Vfhrv9l96XxBZqz3t017tPlK52fiToPxuxnr/XB6FNDxRT7BWO/5/JxdjF/+ybV/d/nEHs+sXDi402D8LrzzmSlPrxajco6uXnCuPA1J/9y2m91rsqucHdd+PDGld/kUQz7FkE8x5FMM+RRDPsWQTzHkUwz5FONhn3h+Q4Px54M7DcbvRj7FkE8xfpFPrLNiyiBu74fNaz4H9bI5PO8+fhTYYPz54E4jjbHOiimDuL3X+0JyKiohn67JJzSzT+/bZBjk85mc4rsPCmww/nxwp5HGWGfFlLc57pzzmZmz50rViYfK0wgf5fxvRj4l3N7LBfnbzXZbb18gn4LIpxjyKYZ8iiGfYsinGPIphnyKIZ9iyKcY8imGfIohn4Zwn9G3zfFjc6xnM+XTJXk+Xb6LXz5f8NT5mRTYYPz54E4jjbHOiimDjPWewmTzM1OwBvcZ5fVuKLDB+PPBnUYaY50VUwZx8lTux8oJzXoC6rOcAX0ACmww/nxwp/Hn+rwv0gi70fO+75zD5Lxv84nXu6HABuPPB3caaYx1VkwZZLT3/G9tt3vPty546n1GKbDB+PPBnUYaY50VUwaZ0rt8iiGfYsinGPIphnyKIZ9iyKcY8imGfIohn2LIpxjyaQy7z+j7V30ctXwa43Sf0c2L5rEmvN7bvMM3+ZTwem/Pyz87/8TZvbuhwAbjzwd3GiPnM8sk1QDfz2M9zYtuNilPY3Cf0TOb+vj07yUmfRDcaaQx1lkxZZApvcunGPIphnyKIZ9iyKcY8imGfIohn2LIpxjyKYZ8iiGfYsinIafn5eepT93nseJOw6QPgjuNNMY6K6YMMtZ7nceafeo9jxV3GiZ9ENxppDHWWTFlkLHesz1lHmv+5PJ5+ZzkuwsKbKQx3GmY9EFwp5HGWGfFlAFy206eqk/2paE8DTnNY5VPjdHebR7rfrvd7rvPY8WdhkkfBHcaaYx1VkwZZErv8imGfIohn2LIpxjyKYZ8iiGfYsinGPIphnyKIZ9iyKdr9txndGePmirIpxFeOKFiZ6IK8umaOj/zbp8osJKGKLCRxnCnUd78KKyzkcZYZ8WUQbze63zfc58mnfelwEp6LwU20hjuNPJKHoZ1NlJBrLOCNMIfdx5rnT+uPBXc3ut9RtuNRuVTDPkUQz7FkE8x5FMM+RRDPsXwtf9dkMcosJKGKLCRxnCnkd/7MKyzkcZYZ8WUQeRTDPkUQz7F+OU+sc5KHhtFPg3IY6OM9r7lefnpJfa8fOyp5DEKrKQhCmykMQps5Pc+DOtspDHWWck61lnJY6OM9f6yKc/qzi/B+ZnYU8ljFFhJQxTYSGMU2MjvfRjW2UhjrLOSdayzksdGGeudeYflRT4ZY72nf2jZp/ySp/22f3fu2UzsqeQxCqwcl3Y+MxfJOit57BrnPqMpSPkhZbxEnpePPZU8RoGVNESBjTRGgY383odhnY00xjorWcc6K3lslLHey/PyX1/Ly/t5nni9BnsqeYwCK2mIAhtpjAIb+b0PwzobaYx1VrKOdVby2Ch+79fIpxjyKYZ8iiGfYsinGPIphnyKIZ9iLNQn1tlIY6yzkcZYZyW/l3VW8tgo8mlAHhtFPg3IY6PIpwF5bJSbPnFuMyOffDi3WZBPPpzbLMgnH85tFj5dKLCSxyiwkoYosJHGKLCR3zsJ1tlIY6yzkcZYZyW/l3VW8tg4eOBxOqkpvmf31s5nCiGEEEIIIYQQQgghhBBCCCGE+EvYb182m9dteVbCZnNsTwAQYjqHlKacJ4uR4iQeYWf7JV7Sa0aREvextxwdz+4zmvZY9rySc5huJn4bbP8o7+WukPbxxGic+ET8JqZv9uPpx1s+Hi9fDKIFitOvpNdmV5x+JYqTeCKKk3giipN4IoqTeCKKk3giipN4IoqTeCKKk3giipN4IoqTeCKKk3gi4c2+P2y3X8zBLHxs8zyCPOHpa7s93Uysojj9SqKb/e2QP7Z5KfvD7j3HyZuOqTj9SoKb/Xhg1hz7p+PhuClx2ilOPwg30fNBNxvBzc5k3tMkzN0h/XQrcSq8DeZmFj7LM6nFcyE0PuhmIxincv1K3ReVGeLpiKmmaDg5M6O9Uw8IjQ+62Yhu9p1dD5XS9HoKUdk7vecv3nUo/jMQGh90s9FrsytOPSA0PuhmQ3FaE4TGB91sKE5rgtD4oJsNxWlNEBofdLOhOK0JQuODbjYUpzVBaHzQzYbitCYIjQ+62VCc1gSh8UE3G4rTmiA0PuhmQ3FaE4TGB91sKE5rgtD4oJsNxWlNEBofdLOhOK0JQuODbjYmb/ZjnlqwO5vg9Lr9eOPTMxSnHhAaH3SzMXWz74e3Wt1s3j7O5tE1FKceEBofdLMxdbPXaZk2y3efozQepzw5b6cPz/zwh9D4JM037+//YfLeaRAn21d9aO/0QxAaH3SzMTlOI7da1Q+7n4LQ+KCbjembvUwUz0dOr6fL7hSnn4LQ+KCbjV6bXXHqAaHxQTcbitOaIDQ+6GZDcVoThMYH3WwoTmuC0Pigmw3FaU0QGh90s6E4rQlC44NuNhSnNUFofNDNhuK0JgiND7rZUJzWBKHxQTcbitOaIDQ+6GZDcVoThMYH3WwoTmuC0Pigm43oZj/mqSh1EuZbnpdyyHd1Ol7f2qmgOPWA0Pigm43gZr+ahJkoX+hWqz8JofFBNxvBzX7xvPvNx3Z7ur3hab7KEMWpB4TGB91sRPdOg0mY0B5Qfv2o8jy5d2eTPv/ov2f9R2h8zrQ//N+0yb0jkzBvxIlPxBMhND7oZiO82a+ed/9VotU+G6I49YDQ+KCbjV6bXXHqAaHxQTcbitOaIDQ+6GZDcVoThMYH3WwoTmuC0Pigmw3FaU0QGh90s6E4rQlC44NuNhSnNUFofNDNhuK0JgiND7rZ+Hvj9M8t0K0JQuODbjYUpzVBaHzQzYbitCYIjQ+62VCc1gSh8TEZDfqYrAPTN/v+8NWe2rp/z89wHZmQqTj1gND4mIwGfUzWgambff/GTJWzCA3maILi1ANC42MyGvQxWQembnaegF+nZSbKvXwvUZx6QGh8TEaDPibrwNTNfnGr1cJhdO9k0/Pmm46Jcz7n4pX8R2h8TEeDPizuif/Z1r7jVqvX1yCMPPdee6cuEBofk9Ggj8k6MHmznz0B/2u3Odhz73Xs9DMQGh+T0aCPyTrQa7MrTj0gND4mo0Efk3VAcVoThMbHZDToY7IOKE5rgtD4mIwGfUzWAcVpTRAaH5PRoI/JOqA4rQlC42MyGvQxWQcUpzVBaHxMRoM+JuuA4rQmCI2PyWjQx2QdUJzWBKHxMRkN+pisA4rTmiA0PiajQR+TdUBxWhOExsdkNOhjsg4oTmuC0PiYjAZ9TNYBxWlNEBofk9Ggj8k6EN7s15Mwyz2ddtv02dfhaj6m4tQDQuNjMhr0MVkHopudSZiH8oXxlif17kZmE2QUpx4QGh+T0aCPyToQ3OzHMhNlOGvuZZs+LPdWqzjng25NEBofk9Ggj8k6ENzsl7daTby3Kw7e6k/Bij34Ps/Q+zMTOOeDbk0QGh+T0aCPyZ6JTciMzsa8moRZnytdGFyJUNDeqQeExsdkNOhjsg5EN/twEmb5qvCRU/WRf+wNUZx6QGh8TEaDPibrQK/Nrjj1gND4mIwGfUzWAcVpTRAaH5PRoI/JOqA4rQlC42MyGvQxWQcUpzVBaHxMRoM+JuuA4rQmCI2PyWjQx2QdUJzWBKHxMRkN+pisA4rTmiA0PiajQR+TdUBxWhOExsdkNOhjsg4oTmuC0PiYjAZ9TNYBxWlNEBofk9Ggj8k6oDitCULjYzIa9DFZBxSnNUFofExGgz4m64DitCYIjY/JaNDHZB2YvNnLrQvbE/Df88jVo1sVpz4QGh+T0aCPyTowdbOPPwH/aqq44tQFQuNjMhr0MVkHpm72kWmZTK0bwmzMGadj4pwPujVBaHxMRoM+JnsiTMa8496YJUdnk8bfRmeLa+/UA0LjYzIa9DFZByZu9v3lE/Bfv66miRfWE6d/b4FuCRAaH5PRoI/JOjB9s7cn4H/tNu/5i+3X24qvsyM0PuiWAKHxMRkN+pisA702u+LUA0LjYzIa9DFZBxQnQuODbgkQGh+T0aCPyTqgOBEaH3RLgND4mIwGfUzWAcWJ0PigWwKExsdkNOhjsg4oToTGB90SIDQ+JqNBH5N1QHEiND7olgCh8TEZDfqYrAOKE6HxQbcECI2PyWjQx2QdUJwIjQ+6JUBofExGgz4m64DiRGh80C0BQuNjMhr0MVkHFCdC44NuCRAaH5PRoI/JOqA4ERofdEuA0PiYjAZ9TNYBxYnQ+KBbAoTGx2Q06GOyDoQ3++BWq+nLd7tf2PpvtUpofNAtAULjYzIa9DFZB6KbfXir1f32hRlP67/VKqHxQbcECI2PyWjQx2QdCG7261ut8un6b7VKaHzQLQFC42MyGvQxWQeCm/16Tu/59F7nVquzPvc+MMPVdITGB90S/iM0PqajQR8W98T/MmljB+N0/bz7wT2h13yrVULjg24JEBofk9Ggj8k6EN3sw1utloHysv5brRIaH3RLgND4mIwGfUzWgV6bXXHqAaHxMRkN+pisA4oTofFBtwQIjY/JaNDHZB1QnAiND7olQGh8TEaDPibrgOJEaHzQLQFC42MyGvQxWQcUJ0Ljg24JEBofk9Ggj8k6oDgRGh90S4DQ+JiMBn1M1gHFidD4oFsChMbHZDToY7IOKE6ExgfdEiA0PiajQR+TdUBxIjQ+6JYAofExGQ36mKwDihOh8UG3BAiNj8lo0MdkHVCcCI0PuiVAaHxMRoM+JuuA4kRofNAtAULjYzIa9DFZB6Zvdmda5gWKUw8IjY/JaNDHZB2YvNm9aZkXKE49IDQ+JqNBH5N1YOpmd6dlXtAxTjjnYzKc8zGZ4vRMpm7276dlNjreahXnfEyGcz4mC8zGXA406GMyGvQx2TNhQub0vdO30zIr2jv1gAZ9TEaDPibrwOTNfvwan5Z5geLUAxr0MRkN+pisA702u+LUAxr0MRkN+pisA4oTofFBtwRo0MdkNOhjsg4oToTGB90SoEEfk9Ggj8k6oDgRGh90S4AGfUxGgz4m64DiRGh80C0BGvQxGQ36mKwDihOh8UG3BGjQx2Q06GOyDihOhMYH3RKgQR+T0aCPyTqwoDj9dwt0OOdjMpzzMZni9EwUJ0Ljg24J0KCPyWjQx2QdUJwIjQ+6JUCDPiajQR+TdUBxIjQ+6JYADfqYjAZ9TNahdcUJ53zQLQEa9DEZDfqYTHHK4JyPyXDOx2SK0zegixPd7MPn3bevjiNPKc8oTj2gQR+T0aCPyeaL0/B592dfPfFWq4TGBx3O+ZgM53xMpjh9A7o4wc0+nIR59lKeDDwSKWZj/gnPxTweCY0PEztxzqeoNBvzG0z27NbjszGHz7u/evr94Z1PKto79YAGfUxGgz4mm/GH3eB598Ov8g8/xelHoEEfk9Ggj8nmi1PeFfFDrczp3Z2+Kp+cYnWG4tQDGvQxGQ36mGzOOE1EceoBDfqYjAZ9TKY4ZXDOx2Q452Myxekb0MVRnHDOB90SoEEfk9Ggj8kUpwzO+ZgM53xMpjh9A7o4ihPO+aBbAjToYzIa9DGZ4pTBOR+T4ZyPyRSnb0AXR3HCOR90S4AGfUxGgz4mU5wyOOdjMpzzMdki4kSDPuho0MdkNOhjMsUpg3M+JsM5H5MpTt+ALo7ihHM+6HpCgz7oaNDHZDToYzLFKYNzPibDOR+TKU7fgC6O4oRzPuh6QoM+6GjQx2Q06GOyBcZpOEuzoThNgQZ90NGgj8lo0Mdky4vTcJbmGYrTFGjQBx0N+piMBn1Mtrw4DadnnqE4TYEGfdDRoI/JaNDHZAvcO13Oyzzx9Sl+I//H9r+LPTMy67xMIR6iztIUQgghhBBCCCGEEEIIIdbJZvP/gsLdRIR1qOIAAAAASUVORK5CYII=;" vertex="1" parent="1">
          <mxGeometry x="954.0007850864955" y="81.99862775530141" width="300" height="209.49" as="geometry" />
        </mxCell>
      </root>
    </mxGraphModel>
  </diagram>
</mxfile>
